<!DOCTYPE svg PUBLIC "-//W3C//DTD SVG 1.1//EN" "http://www.w3.org/Graphics/SVG/1.1/DTD/svg11.dtd">
<!-- Uploaded to: SVG Repo, www.svgrepo.com, Transformed by: SVG Repo Mixer Tools -->
<svg width="70px" height="70px" viewBox="0 0 24 24" fill="none" xmlns="http://www.w3.org/2000/svg" stroke="#5250be">
<g id="SVGRepo_bgCarrier" stroke-width="0"/>
<g id="SVGRepo_tracerCarrier" stroke-linecap="round" stroke-linejoin="round"/>
<g id="SVGRepo_iconCarrier">
<path d="M13 15V7M13 15L18.5039 18.1451C19.1705 18.526 20 18.0446 20 17.2768V14V8V4.72318C20 3.95536 19.1705 3.47399 18.5039 3.85494L13 7M13 15H10M13 7H7C4.79086 7 3 8.79086 3 11V11C3 13.2091 4.79086 15 7 15V15M7 15V19.5C7 20.3284 7.67157 21 8.5 21V21C9.32843 21 10 20.3284 10 19.5V15M7 15H10" stroke="#445aca" stroke-linecap="round" stroke-linejoin="round" stroke-width="2"/>
</g>
</svg>